<svg xmlns="http://www.w3.org/2000/svg" viewBox="0 0 25 30"><defs><style>.cls-1{fill:#fff;}.cls-2{fill:#c7a12f;}.cls-3{fill:#231f20;}</style></defs><title>25x30</title><g id="Layer_2" data-name="Layer 2"><rect class="cls-1" x="2.86" y="1.5" width="19.27" height="26.51" rx="1.27" ry="1.27"/><path class="cls-2" d="M22.14,26.74A1.27,1.27,0,0,1,20.87,28H4.13a1.27,1.27,0,0,1-1.27-1.27v-24A1.27,1.27,0,0,1,4.13,1.5H20.87a1.27,1.27,0,0,1,1.27,1.27Zm.91-24A2.19,2.19,0,0,0,20.87.59H4.13A2.19,2.19,0,0,0,2,2.77v24a2.18,2.18,0,0,0,2.18,2.18H20.87a2.18,2.18,0,0,0,2.18-2.18Z"/><path class="cls-3" d="M4.46,23.7l.27,1H4.19Zm-1,2h.47l.14-.54h.77l.14.54h.48L4.71,23.1H4.22Z"/><path class="cls-3" d="M5.74,23.1h.44v1.08L7,23.1h.56l-.86,1.08.91,1.55H7l-.64-1.15-.21.27v.88H5.74Z"/><path class="cls-3" d="M8.25,25.73H7.81V23.1h.44Z"/><path class="cls-3" d="M8.92,24.73v.06a1.34,1.34,0,0,0,.05.43.18.18,0,0,0,.19.12.18.18,0,0,0,.19-.13.87.87,0,0,0,0-.27V23.1h.44v1.83a1.3,1.3,0,0,1-.09.53.56.56,0,0,1-.56.33.56.56,0,0,1-.54-.26,1.69,1.69,0,0,1-.13-.74v-.06Z"/><path class="cls-3" d="M12.51,23.92a.49.49,0,0,0-.24-.38.48.48,0,0,0-.24-.06.49.49,0,0,0-.42.24,1.28,1.28,0,0,0-.16.72,1,1,0,0,0,.18.68.49.49,0,0,0,.76.05.8.8,0,0,0,.17-.42h-.48v-.44H13v1.42h-.3l0-.33a1.26,1.26,0,0,1-.23.26.69.69,0,0,1-.43.13.8.8,0,0,1-.68-.36,1.55,1.55,0,0,1-.28-1,1.7,1.7,0,0,1,.28-1A.9.9,0,0,1,12,23a.84.84,0,0,1,.64.25,1,1,0,0,1,.28.64Z"/><path class="cls-3" d="M14.3,23.55a.41.41,0,0,1,.21.05.36.36,0,0,1,.12.32.31.31,0,0,1-.13.29.36.36,0,0,1-.21.05h-.47v-.71Zm.09-.45h-1v2.63h.43v-1h.43a.3.3,0,0,1,.25.08.66.66,0,0,1,.06.34v.24a.9.9,0,0,0,0,.23.5.5,0,0,0,0,.14h.48v-.07a.22.22,0,0,1-.08-.15,1.36,1.36,0,0,1,0-.24v-.18a1.07,1.07,0,0,0-.06-.41.43.43,0,0,0-.21-.21.46.46,0,0,0,.25-.26.92.92,0,0,0,.07-.36,1.14,1.14,0,0,0,0-.28,1.51,1.51,0,0,0-.11-.22.49.49,0,0,0-.2-.18A.6.6,0,0,0,14.39,23.1Z"/><path class="cls-3" d="M16.42,25.33a.49.49,0,0,1-.42-.24,1.29,1.29,0,0,1-.15-.68,1.25,1.25,0,0,1,.15-.68.49.49,0,0,1,.42-.24.48.48,0,0,1,.42.24,1.27,1.27,0,0,1,.15.68,1.29,1.29,0,0,1-.15.68A.48.48,0,0,1,16.42,25.33Zm1-.92a1.61,1.61,0,0,0-.32-1.09.94.94,0,0,0-1.38,0,1.61,1.61,0,0,0-.32,1.09,1.64,1.64,0,0,0,.32,1.08.94.94,0,0,0,1.38,0A1.64,1.64,0,0,0,17.43,24.41Z"/><path class="cls-3" d="M17.76,23.1h.45v1.61a1.18,1.18,0,0,0,.05.39.38.38,0,0,0,.7,0,1,1,0,0,0,.05-.39V23.1h.44v1.61a1.7,1.7,0,0,1-.1.66.74.74,0,0,1-.74.42.73.73,0,0,1-.74-.42,1.67,1.67,0,0,1-.11-.66Z"/><path class="cls-3" d="M21,23.93a.41.41,0,0,1-.09.3.29.29,0,0,1-.23.1h-.39v-.78h.39a.29.29,0,0,1,.23.09A.4.4,0,0,1,21,23.93Zm.44,0a.93.93,0,0,0-.19-.63.65.65,0,0,0-.5-.2h-.9v2.63h.44v-.95h.44a.68.68,0,0,0,.52-.19A.91.91,0,0,0,21.47,23.93Z"/><path class="cls-3" d="M12.52,19.35s-3.36,4.53-9-.64V3.26a.87.87,0,0,1,.88-1H20.62s.85-.15.87,1V18.71S16.79,23.91,12.52,19.35Z"/><path class="cls-2" d="M12.43,10a2.78,2.78,0,0,0-.77-1.17,2.22,2.22,0,0,1-.37-2.56,24.15,24.15,0,0,1,1.25-2.3S14,6,14,7.17A2.14,2.14,0,0,1,13.23,9c-.25.29-.55.48-.55,1v2.23A6.63,6.63,0,0,1,14.16,10a4.71,4.71,0,0,1,2.73-.8,5,5,0,0,0,1.73-.39,4.5,4.5,0,0,1-4.39,3.58c-.37,0-1.24-.1-1.54.37l.08,4.82a13.41,13.41,0,0,0,.68-1.48,4.39,4.39,0,0,1,4.41-2.95c.69,0,2.59-.08,2.59-.08a7.91,7.91,0,0,1-4,4,4.25,4.25,0,0,1-2.12.14c-.6-.09-1.46.33-1.34,1S14.4,20.3,17,20a7.26,7.26,0,0,0,4.29-2.56v1.29a7.48,7.48,0,0,1-5.78,2.2A4.68,4.68,0,0,1,12.57,19s-1.24,2.36-4.73,1.9c-.77-.1-3.36-1.15-4.07-2.39V17.4a6.48,6.48,0,0,0,5,2.63c3.17.09,3.34-1.86,3.34-1.86s.32-.87-1.61-.85S6.58,16.52,4.6,13a9.78,9.78,0,0,0,2.2.18c1.51,0,4.28.21,5.48,4.36V13s.07-.75-.95-.58-3.85-.07-5.07-3.76a4.72,4.72,0,0,0,2.05.52,4.3,4.3,0,0,1,4.07,3.21Z"/><path class="cls-3" d="M11.84,12.1l-.76-.48a4.64,4.64,0,0,1-1,.46s.73-.39.83-.61l-1-.41a1.78,1.78,0,0,1-.91.41s.69-.27.76-.53l-.66-.3a2.61,2.61,0,0,1-1.1.27s.86-.22.91-.34l-.69-.36a2.78,2.78,0,0,1-.83,0l.64-.1-.78-.56.85.44L8,9.5l.36.63.88.42-.15-.44a3.27,3.27,0,0,1,.3.51l.8.39a2.22,2.22,0,0,0-.51-1.17,1.81,1.81,0,0,1,.66,1.22,8.46,8.46,0,0,1,1.21.63c-.07-.12-.24-.83-.61-1.07a2.18,2.18,0,0,1,.74,1.12L12,12Z"/><path class="cls-3" d="M12.52,9.6l0-.69a2.29,2.29,0,0,1-1-.83s.78.64,1,.61l0-1a3.32,3.32,0,0,1-.81-.77,6,6,0,0,0,.78.58l-.07-.9a2.83,2.83,0,0,1-.54-.78l.61.63,0-1a3.26,3.26,0,0,1-.35-.44l.37.29,0-.68.12.73L13,5.06l-.44.54,0,.8a7.58,7.58,0,0,0,.69-.49s-.47.54-.66.71l0,1A4,4,0,0,0,13.3,7s-.58.68-.7.88v.93a1.38,1.38,0,0,0,.68-.37s-.44.41-.68.59l.05.53S12.62,9.69,12.52,9.6Z"/><path class="cls-3" d="M11.86,17.44a2,2,0,0,0-.68-.7A1.88,1.88,0,0,1,9.62,17s1.25,0,1.49-.44L10.38,16s-.24.52-2.12.37c0,0,1.6-.05,2-.51l-1-.44a6.06,6.06,0,0,1-1.29.41,10.56,10.56,0,0,0,1-.51s-1.56-.56-1.83-.63l-.9.21L7,14.57l-.93-.42-.56,0L5.92,14l-.61-.39.68.29-.07-.31.19.39,1.15.51a2.51,2.51,0,0,0-.51-.95,1.85,1.85,0,0,1,.63,1l1.32.43-.44-.9.61,1a6.5,6.5,0,0,1,1.31.54s-.19-.88-.26-1.08a7.07,7.07,0,0,1,.46,1.2l.75.61L11,15.62a7.53,7.53,0,0,1,.26,1,7.38,7.38,0,0,1,.66.73C12,17.44,12,17.5,11.86,17.44Z"/><path class="cls-3" d="M13.16,12.1l.75-.48a4.82,4.82,0,0,0,1,.46s-.73-.39-.83-.61l1-.41a1.78,1.78,0,0,0,.91.41s-.69-.27-.76-.53l.66-.3a2.61,2.61,0,0,0,1.1.27s-.86-.22-.91-.34l.69-.36a2.72,2.72,0,0,0,.82,0l-.63-.1.78-.56-.85.44L17,9.5l-.36.63-.88.42.15-.44a2.69,2.69,0,0,0-.29.51l-.81.39a2.14,2.14,0,0,1,.51-1.17,1.81,1.81,0,0,0-.66,1.22,9,9,0,0,0-1.22.63c.08-.12.25-.83.62-1.07a2.12,2.12,0,0,0-.74,1.12L13,12Z"/><path class="cls-3" d="M13.13,17.44a2.06,2.06,0,0,1,.68-.7,1.91,1.91,0,0,0,1.57.29s-1.25,0-1.49-.44l.73-.61s.24.52,2.12.37c0,0-1.61-.05-2-.51l1-.44a6.06,6.06,0,0,0,1.29.41,9.59,9.59,0,0,1-1-.51s1.56-.56,1.83-.63l.9.21L18,14.57l.93-.42.56,0L19.08,14l.61-.39-.68.29.07-.31-.19.39-1.15.51a2.43,2.43,0,0,1,.52-.95,1.85,1.85,0,0,0-.64,1l-1.32.43.44-.9-.61,1a6.5,6.5,0,0,0-1.31.54s.19-.88.26-1.08a7.07,7.07,0,0,0-.46,1.2l-.75.61.09-.78a7.53,7.53,0,0,0-.26,1,6.31,6.31,0,0,0-.66.73C13,17.44,13,17.5,13.13,17.44Z"/></g></svg>